<?xml version="1.0" standalone="no"?>
<!DOCTYPE svg PUBLIC "-//W3C//DTD SVG 20010904//EN"
 "http://www.w3.org/TR/2001/REC-SVG-20010904/DTD/svg10.dtd">
<svg version="1.0" xmlns="http://www.w3.org/2000/svg"
 width="687.000000pt" height="235.000000pt" viewBox="0 0 687.000000 235.000000"
 preserveAspectRatio="xMidYMid meet">

<g transform="translate(0.000000,235.000000) scale(0.100000,-0.100000)"
fill="#000000" stroke="none">
<path d="M1538 2094 c-25 -13 -28 -20 -28 -69 0 -52 -1 -55 -25 -55 -21 0 -25
-5 -25 -30 0 -25 4 -30 25 -30 l25 0 0 -119 c0 -105 2 -121 21 -145 16 -21 29
-26 62 -26 53 0 63 7 69 48 5 34 4 35 -27 23 -11 -5 -28 -4 -37 1 -15 7 -18
24 -18 113 l0 105 40 0 c38 0 40 2 40 30 0 28 -2 30 -40 30 l-40 0 0 70 c0 39
-3 70 -7 70 -5 -1 -20 -8 -35 -16z"/>
<path d="M535 1962 c-100 -43 -133 -87 -142 -190 l-6 -71 -51 -3 c-50 -3 -51
-4 -54 -35 l-3 -33 55 0 56 0 0 -52 c0 -52 0 -53 30 -53 30 0 30 1 30 53 l0
52 48 0 c31 0 68 10 109 29 52 25 66 38 92 83 25 44 31 64 31 116 0 35 -4 72
-10 82 -21 40 -116 51 -185 22z m119 -58 c33 -32 9 -120 -46 -169 -34 -32 -44
-35 -98 -35 l-60 0 0 40 c0 56 22 102 64 136 55 44 113 56 140 28z"/>
<path d="M879 1960 c-103 -55 -105 -257 -5 -320 51 -31 123 -27 174 9 47 34
66 81 65 157 0 60 -26 119 -65 147 -40 29 -123 33 -169 7z m140 -76 c32 -41
30 -136 -4 -169 -49 -50 -126 -22 -141 53 -9 43 3 99 27 123 30 30 92 26 118
-7z"/>
<path d="M1290 1960 c-16 -16 -20 -17 -20 -5 0 11 -11 15 -40 15 l-40 0 0
-170 0 -170 40 0 40 0 0 110 c0 62 5 120 12 135 13 28 45 40 82 31 25 -6 36 7
36 44 0 35 -78 42 -110 10z"/>
<path d="M2154 1964 c-31 -15 -54 -50 -54 -80 0 -37 31 -71 87 -97 86 -41 88
-42 91 -65 5 -32 -39 -50 -81 -33 -54 22 -61 22 -86 2 l-24 -18 45 -27 c73
-42 179 -31 208 23 16 31 12 86 -10 113 -11 14 -49 38 -85 53 -54 23 -65 32
-65 52 0 21 5 23 43 23 24 0 48 -5 54 -11 8 -8 18 -6 37 6 35 23 33 31 -14 55
-47 24 -103 25 -146 4z"/>
<path d="M1737 1853 c2 -153 7 -176 44 -207 45 -38 134 -33 161 8 5 7 8 4 8
-6 0 -14 8 -18 35 -18 l35 0 0 170 0 170 -35 0 -35 0 0 -118 c0 -140 -9 -162
-69 -162 -63 0 -71 17 -71 158 l0 122 -37 0 -38 0 2 -117z"/>
<path d="M2668 1154 l-48 -24 0 -400 0 -400 60 0 60 0 0 425 c0 334 -3 425
-12 425 -7 -1 -34 -12 -60 -26z"/>
<path d="M4233 1155 l-53 -24 0 -396 0 -395 60 0 60 0 0 420 c0 231 -3 420 -7
420 -5 0 -32 -11 -60 -25z"/>
<path d="M4523 1155 l-53 -24 0 -396 0 -395 60 0 60 0 0 420 c0 231 -3 420 -7
420 -5 0 -32 -11 -60 -25z"/>
<path d="M342 748 l3 -413 63 -3 62 -3 0 186 0 185 125 0 125 0 0 60 0 60
-125 0 -125 0 0 110 0 110 195 0 195 0 0 60 0 60 -260 0 -260 0 2 -412z"/>
<path d="M1010 936 c-25 -7 -59 -20 -77 -29 l-31 -17 21 -50 21 -49 35 22 c30
18 51 22 124 22 85 0 90 -1 113 -28 18 -21 24 -40 24 -73 0 -24 -2 -44 -4 -44
-2 0 -20 7 -39 15 -57 24 -162 19 -222 -9 -59 -27 -82 -51 -101 -103 -26 -73
-12 -152 36 -206 32 -37 107 -67 166 -67 47 0 120 23 145 46 16 14 18 14 21
-8 3 -21 9 -23 61 -26 l57 -3 0 229 c0 299 -13 339 -119 377 -52 18 -167 18
-231 1z m198 -338 c31 -9 32 -12 32 -61 0 -49 -3 -54 -37 -77 -30 -21 -49 -25
-104 -25 -75 0 -103 16 -114 64 -20 93 87 141 223 99z"/>
<path d="M1715 938 c-11 -6 -32 -22 -47 -36 l-28 -26 0 32 0 32 -60 0 -60 0 0
-305 0 -305 60 0 60 0 0 193 c0 209 10 255 61 291 27 19 97 21 134 4 14 -6 27
-9 29 -7 2 2 7 27 11 56 6 50 6 52 -24 67 -35 18 -107 21 -136 4z"/>
<path d="M2127 938 c-23 -6 -57 -29 -87 -58 -58 -56 -90 -144 -90 -245 0 -191
111 -315 281 -315 60 0 148 32 179 65 l24 25 -39 40 -38 39 -29 -24 c-61 -51
-151 -45 -210 15 -30 30 -38 45 -38 74 l0 36 200 0 200 0 0 91 c0 80 -3 97
-27 140 -58 108 -187 154 -326 117z m163 -111 c33 -17 70 -74 70 -108 l0 -29
-140 0 -140 0 0 34 c0 38 38 92 74 106 32 13 108 11 136 -3z"/>
<path d="M3046 930 c-105 -41 -156 -138 -156 -295 0 -118 23 -186 83 -244 112
-109 316 -87 383 41 23 43 17 54 -38 75 l-52 20 -16 -31 c-20 -41 -78 -69
-123 -61 -72 14 -117 90 -117 200 0 80 15 125 54 164 32 32 42 36 87 36 47 0
54 -3 84 -38 l33 -38 48 20 c57 22 60 41 18 96 -52 68 -188 94 -288 55z"/>
<path d="M3655 933 c-70 -28 -106 -62 -138 -131 -29 -61 -31 -74 -30 -169 2
-120 25 -184 87 -245 106 -103 312 -83 400 39 81 112 75 329 -12 432 -69 82
-205 115 -307 74z m176 -116 c52 -34 79 -97 79 -182 -1 -129 -57 -200 -157
-199 -44 0 -58 5 -84 30 -50 47 -62 80 -62 170 0 67 4 89 24 124 43 77 133
102 200 57z"/>
<path d="M4906 930 c-90 -35 -144 -111 -166 -229 -19 -106 13 -231 77 -302 41
-46 123 -79 193 -79 61 0 149 32 180 65 l24 26 -35 35 -36 36 -35 -24 c-48
-33 -130 -37 -176 -8 -40 25 -72 75 -72 115 l0 30 199 -3 200 -3 7 37 c9 49
-12 171 -37 211 -61 98 -204 139 -323 93z m184 -110 c26 -19 60 -83 60 -115 0
-13 -24 -15 -145 -15 l-145 0 0 25 c0 35 24 79 56 104 37 29 134 30 174 1z"/>
<path d="M5524 926 c-90 -42 -135 -127 -142 -269 -4 -84 -1 -107 18 -160 37
-102 99 -159 187 -173 57 -8 103 1 147 31 l36 24 0 -50 c0 -42 -5 -55 -28 -79
-28 -28 -113 -60 -159 -60 -29 0 -29 -7 3 -53 25 -37 25 -37 77 -31 106 14
169 54 205 132 l27 57 0 320 0 320 -58 3 c-50 3 -59 0 -64 -16 -4 -18 -6 -18
-50 5 -62 31 -132 30 -199 -1z m204 -116 l42 -30 0 -145 0 -144 -37 -28 c-28
-22 -47 -28 -84 -28 -59 0 -96 25 -126 85 -32 63 -32 179 0 240 43 82 132 103
205 50z"/>
<path d="M6203 932 c-60 -25 -119 -86 -145 -152 -31 -79 -31 -213 1 -290 56
-137 191 -198 339 -155 28 9 65 27 82 41 l30 26 -32 38 c-18 21 -37 39 -42 39
-4 1 -21 -10 -38 -24 -23 -20 -41 -25 -81 -25 -29 0 -63 6 -76 13 -38 19 -83
81 -84 117 l-2 31 201 -1 202 -1 4 38 c13 102 -27 224 -89 269 -74 54 -188 69
-270 36z m177 -107 c32 -17 53 -51 65 -102 l7 -33 -152 0 -152 0 6 25 c13 51
25 73 56 98 26 22 42 27 86 27 30 0 68 -7 84 -15z"/>
</g>
</svg>
